<svg width="8" height="8" viewBox="0 0 8 8" fill="none" xmlns="http://www.w3.org/2000/svg">
<path d="M7.62797 6.61511C7.58686 6.52103 7.52734 6.43612 7.4529 6.3654L4.92021 3.83223L7.4529 1.29906C7.59107 1.15362 7.66696 0.959969 7.66439 0.759383C7.66183 0.558798 7.581 0.36715 7.43915 0.225303C7.29731 0.0834557 7.10566 0.00263134 6.90507 6.30988e-05C6.70449 -0.00250467 6.51083 0.0733863 6.3654 0.211555L3.83223 2.74425L1.29906 0.211555C1.15362 0.0733863 0.959969 -0.00250467 0.759383 6.30988e-05C0.558798 0.00263134 0.36715 0.0834557 0.225303 0.225303C0.0834557 0.36715 0.00263134 0.558798 6.30988e-05 0.759383C-0.00250467 0.959969 0.0733863 1.15362 0.211555 1.29906L2.74425 3.83223L0.211555 6.3654C0.0733863 6.51083 -0.00250467 6.70449 6.30988e-05 6.90507C0.00263134 7.10566 0.0834557 7.29731 0.225303 7.43915C0.36715 7.581 0.558798 7.66183 0.759383 7.66439C0.959969 7.66696 1.15362 7.59107 1.29906 7.4529L3.83223 4.92021L6.3654 7.4529C6.43612 7.52734 6.52103 7.58686 6.61511 7.62797C6.7092 7.66908 6.81056 7.69093 6.91323 7.69224C7.01589 7.69356 7.11778 7.67431 7.21289 7.63562C7.308 7.59694 7.3944 7.53961 7.46701 7.46701C7.53961 7.3944 7.59694 7.308 7.63562 7.21289C7.67431 7.11778 7.69356 7.01589 7.69224 6.91323C7.69093 6.81056 7.66908 6.7092 7.62797 6.61511Z" fill="white"/>
</svg>
